<svg width="48" height="48" viewBox="0 0 48 48" fill="none" xmlns="http://www.w3.org/2000/svg">
<circle cx="24" cy="24" r="24" fill="white"/>
<path d="M14.8555 13.2852L15.5117 15.1133C14.8008 15.3711 14.3164 15.8281 14.0586 16.4844C13.8008 17.1328 13.6719 17.8828 13.6719 18.7344V21.125C13.6719 21.9141 13.4961 22.6289 13.1445 23.2695C12.8008 23.9102 12.2539 24.4219 11.5039 24.8047C10.7539 25.1797 9.77344 25.3672 8.5625 25.3672V23.5859C9.30469 23.5859 9.83594 23.3633 10.1562 22.918C10.4844 22.4727 10.6484 21.875 10.6484 21.125V18.7344C10.6484 17.9141 10.7734 17.1484 11.0234 16.4375C11.2812 15.7188 11.7148 15.0898 12.3242 14.5508C12.9414 14.0039 13.7852 13.582 14.8555 13.2852ZM15.5117 34.4023L14.8555 36.2422C13.7852 35.9375 12.9414 35.5117 12.3242 34.9648C11.7148 34.4258 11.2812 33.7969 11.0234 33.0781C10.7734 32.3672 10.6484 31.6016 10.6484 30.7812V28.3906C10.6484 27.8906 10.5742 27.457 10.4258 27.0898C10.2852 26.7227 10.0625 26.4414 9.75781 26.2461C9.45312 26.043 9.05469 25.9414 8.5625 25.9414V24.1484C9.77344 24.1484 10.7539 24.3398 11.5039 24.7227C12.2539 25.0977 12.8008 25.6055 13.1445 26.2461C13.4961 26.8867 13.6719 27.6016 13.6719 28.3906V30.7812C13.6719 31.3516 13.7266 31.8789 13.8359 32.3633C13.9531 32.8477 14.1406 33.2656 14.3984 33.6172C14.6641 33.9688 15.0352 34.2305 15.5117 34.4023ZM24.3828 17.8555L19.7422 32H16.0039L22.3438 14.9375H24.7227L24.3828 17.8555ZM28.2383 32L23.5859 17.8555L23.2109 14.9375H25.6133L31.9883 32H28.2383ZM28.0273 25.6484V28.4023H19.0156V25.6484H28.0273ZM32.4453 15.1133L33.1016 13.2852C34.1797 13.582 35.0234 14.0039 35.6328 14.5508C36.2422 15.0898 36.6719 15.7188 36.9219 16.4375C37.1797 17.1484 37.3086 17.9141 37.3086 18.7344V21.125C37.3086 21.625 37.3789 22.0586 37.5195 22.4258C37.6602 22.793 37.8828 23.0781 38.1875 23.2812C38.5 23.4844 38.9023 23.5859 39.3945 23.5859V25.3203C38.1836 25.3203 37.2031 25.1367 36.4531 24.7695C35.7031 24.4023 35.1523 23.9023 34.8008 23.2695C34.4492 22.6289 34.2734 21.9141 34.2734 21.125V18.7344C34.2734 18.1641 34.2188 17.6367 34.1094 17.1523C34.0078 16.668 33.8242 16.25 33.5586 15.8984C33.293 15.5469 32.9219 15.2852 32.4453 15.1133ZM33.1016 36.2422L32.4453 34.4023C32.9219 34.2305 33.293 33.9688 33.5586 33.6172C33.8242 33.2656 34.0078 32.8477 34.1094 32.3633C34.2188 31.8789 34.2734 31.3516 34.2734 30.7812V28.3906C34.2734 27.6016 34.4492 26.8906 34.8008 26.2578C35.1523 25.625 35.7031 25.125 36.4531 24.7578C37.2031 24.3828 38.1836 24.1953 39.3945 24.1953V25.9414C38.6602 25.9414 38.1289 26.1641 37.8008 26.6094C37.4727 27.0547 37.3086 27.6484 37.3086 28.3906V30.7812C37.3086 31.6016 37.1797 32.3672 36.9219 33.0781C36.6719 33.7969 36.2422 34.4258 35.6328 34.9648C35.0234 35.5117 34.1797 35.9375 33.1016 36.2422Z" fill="black"/>
</svg>
