<svg width="110" height="28" viewBox="0 0 110 28" fill="none" xmlns="http://www.w3.org/2000/svg">
<path d="M8.15625 19.1406V13.4922C8.15625 13.0859 8.08984 12.7383 7.95703 12.4492C7.82422 12.1523 7.61719 11.9219 7.33594 11.7578C7.0625 11.5938 6.70703 11.5117 6.26953 11.5117C5.89453 11.5117 5.57031 11.5781 5.29688 11.7109C5.02344 11.8359 4.8125 12.0195 4.66406 12.2617C4.51562 12.4961 4.44141 12.7734 4.44141 13.0938H1.06641C1.06641 12.5547 1.19141 12.043 1.44141 11.5586C1.69141 11.0742 2.05469 10.6484 2.53125 10.2812C3.00781 9.90625 3.57422 9.61328 4.23047 9.40234C4.89453 9.19141 5.63672 9.08594 6.45703 9.08594C7.44141 9.08594 8.31641 9.25 9.08203 9.57812C9.84766 9.90625 10.4492 10.3984 10.8867 11.0547C11.332 11.7109 11.5547 12.5312 11.5547 13.5156V18.9414C11.5547 19.6367 11.5977 20.207 11.6836 20.6523C11.7695 21.0898 11.8945 21.4727 12.0586 21.8008V22H8.64844C8.48438 21.6562 8.35938 21.2266 8.27344 20.7109C8.19531 20.1875 8.15625 19.6641 8.15625 19.1406ZM8.60156 14.2773L8.625 16.1875H6.73828C6.29297 16.1875 5.90625 16.2383 5.57812 16.3398C5.25 16.4414 4.98047 16.5859 4.76953 16.7734C4.55859 16.9531 4.40234 17.1641 4.30078 17.4062C4.20703 17.6484 4.16016 17.9141 4.16016 18.2031C4.16016 18.4922 4.22656 18.7539 4.35938 18.9883C4.49219 19.2148 4.68359 19.3945 4.93359 19.5273C5.18359 19.6523 5.47656 19.7148 5.8125 19.7148C6.32031 19.7148 6.76172 19.6133 7.13672 19.4102C7.51172 19.207 7.80078 18.957 8.00391 18.6602C8.21484 18.3633 8.32422 18.082 8.33203 17.8164L9.22266 19.2461C9.09766 19.5664 8.92578 19.8984 8.70703 20.2422C8.49609 20.5859 8.22656 20.9102 7.89844 21.2148C7.57031 21.5117 7.17578 21.7578 6.71484 21.9531C6.25391 22.1406 5.70703 22.2344 5.07422 22.2344C4.26953 22.2344 3.53906 22.0742 2.88281 21.7539C2.23438 21.4258 1.71875 20.9766 1.33594 20.4062C0.960938 19.8281 0.773438 19.1719 0.773438 18.4375C0.773438 17.7734 0.898438 17.1836 1.14844 16.668C1.39844 16.1523 1.76562 15.7188 2.25 15.3672C2.74219 15.0078 3.35547 14.7383 4.08984 14.5586C4.82422 14.3711 5.67578 14.2773 6.64453 14.2773H8.60156ZM21 19.1406V13.4922C21 13.0859 20.9336 12.7383 20.8008 12.4492C20.668 12.1523 20.4609 11.9219 20.1797 11.7578C19.9062 11.5938 19.5508 11.5117 19.1133 11.5117C18.7383 11.5117 18.4141 11.5781 18.1406 11.7109C17.8672 11.8359 17.6562 12.0195 17.5078 12.2617C17.3594 12.4961 17.2852 12.7734 17.2852 13.0938H13.9102C13.9102 12.5547 14.0352 12.043 14.2852 11.5586C14.5352 11.0742 14.8984 10.6484 15.375 10.2812C15.8516 9.90625 16.418 9.61328 17.0742 9.40234C17.7383 9.19141 18.4805 9.08594 19.3008 9.08594C20.2852 9.08594 21.1602 9.25 21.9258 9.57812C22.6914 9.90625 23.293 10.3984 23.7305 11.0547C24.1758 11.7109 24.3984 12.5312 24.3984 13.5156V18.9414C24.3984 19.6367 24.4414 20.207 24.5273 20.6523C24.6133 21.0898 24.7383 21.4727 24.9023 21.8008V22H21.4922C21.3281 21.6562 21.2031 21.2266 21.1172 20.7109C21.0391 20.1875 21 19.6641 21 19.1406ZM21.4453 14.2773L21.4688 16.1875H19.582C19.1367 16.1875 18.75 16.2383 18.4219 16.3398C18.0938 16.4414 17.8242 16.5859 17.6133 16.7734C17.4023 16.9531 17.2461 17.1641 17.1445 17.4062C17.0508 17.6484 17.0039 17.9141 17.0039 18.2031C17.0039 18.4922 17.0703 18.7539 17.2031 18.9883C17.3359 19.2148 17.5273 19.3945 17.7773 19.5273C18.0273 19.6523 18.3203 19.7148 18.6562 19.7148C19.1641 19.7148 19.6055 19.6133 19.9805 19.4102C20.3555 19.207 20.6445 18.957 20.8477 18.6602C21.0586 18.3633 21.168 18.082 21.1758 17.8164L22.0664 19.2461C21.9414 19.5664 21.7695 19.8984 21.5508 20.2422C21.3398 20.5859 21.0703 20.9102 20.7422 21.2148C20.4141 21.5117 20.0195 21.7578 19.5586 21.9531C19.0977 22.1406 18.5508 22.2344 17.918 22.2344C17.1133 22.2344 16.3828 22.0742 15.7266 21.7539C15.0781 21.4258 14.5625 20.9766 14.1797 20.4062C13.8047 19.8281 13.6172 19.1719 13.6172 18.4375C13.6172 17.7734 13.7422 17.1836 13.9922 16.668C14.2422 16.1523 14.6094 15.7188 15.0938 15.3672C15.5859 15.0078 16.1992 14.7383 16.9336 14.5586C17.668 14.3711 18.5195 14.2773 19.4883 14.2773H21.4453ZM30.375 12.0859V22H27V9.32031H30.1758L30.375 12.0859ZM34.1953 9.23828L34.1367 12.3672C33.9727 12.3438 33.7734 12.3242 33.5391 12.3086C33.3125 12.2852 33.1055 12.2734 32.918 12.2734C32.4414 12.2734 32.0273 12.3359 31.6758 12.4609C31.332 12.5781 31.043 12.7539 30.8086 12.9883C30.582 13.2227 30.4102 13.5078 30.293 13.8438C30.1836 14.1797 30.1211 14.5625 30.1055 14.9922L29.4258 14.7812C29.4258 13.9609 29.5078 13.207 29.6719 12.5195C29.8359 11.8242 30.0742 11.2188 30.3867 10.7031C30.707 10.1875 31.0977 9.78906 31.5586 9.50781C32.0195 9.22656 32.5469 9.08594 33.1406 9.08594C33.3281 9.08594 33.5195 9.10156 33.7148 9.13281C33.9102 9.15625 34.0703 9.19141 34.1953 9.23828ZM34.8984 15.7891V15.543C34.8984 14.6133 35.0312 13.7578 35.2969 12.9766C35.5625 12.1875 35.9492 11.5039 36.457 10.9258C36.9648 10.3477 37.5898 9.89844 38.332 9.57812C39.0742 9.25 39.9258 9.08594 40.8867 9.08594C41.8477 9.08594 42.7031 9.25 43.4531 9.57812C44.2031 9.89844 44.832 10.3477 45.3398 10.9258C45.8555 11.5039 46.2461 12.1875 46.5117 12.9766C46.7773 13.7578 46.9102 14.6133 46.9102 15.543V15.7891C46.9102 16.7109 46.7773 17.5664 46.5117 18.3555C46.2461 19.1367 45.8555 19.8203 45.3398 20.4062C44.832 20.9844 44.207 21.4336 43.4648 21.7539C42.7227 22.0742 41.8711 22.2344 40.9102 22.2344C39.9492 22.2344 39.0938 22.0742 38.3438 21.7539C37.6016 21.4336 36.9727 20.9844 36.457 20.4062C35.9492 19.8203 35.5625 19.1367 35.2969 18.3555C35.0312 17.5664 34.8984 16.7109 34.8984 15.7891ZM38.2734 15.543V15.7891C38.2734 16.3203 38.3203 16.8164 38.4141 17.2773C38.5078 17.7383 38.6562 18.1445 38.8594 18.4961C39.0703 18.8398 39.3438 19.1094 39.6797 19.3047C40.0156 19.5 40.4258 19.5977 40.9102 19.5977C41.3789 19.5977 41.7812 19.5 42.1172 19.3047C42.4531 19.1094 42.7227 18.8398 42.9258 18.4961C43.1289 18.1445 43.2773 17.7383 43.3711 17.2773C43.4727 16.8164 43.5234 16.3203 43.5234 15.7891V15.543C43.5234 15.0273 43.4727 14.543 43.3711 14.0898C43.2773 13.6289 43.125 13.2227 42.9141 12.8711C42.7109 12.5117 42.4414 12.2305 42.1055 12.0273C41.7695 11.8242 41.3633 11.7227 40.8867 11.7227C40.4102 11.7227 40.0039 11.8242 39.668 12.0273C39.3398 12.2305 39.0703 12.5117 38.8594 12.8711C38.6562 13.2227 38.5078 13.6289 38.4141 14.0898C38.3203 14.543 38.2734 15.0273 38.2734 15.543ZM52.2891 12.0273V22H48.9141V9.32031H52.0781L52.2891 12.0273ZM51.7969 15.2148H50.8828C50.8828 14.2773 51.0039 13.4336 51.2461 12.6836C51.4883 11.9258 51.8281 11.2812 52.2656 10.75C52.7031 10.2109 53.2227 9.80078 53.8242 9.51953C54.4336 9.23047 55.1133 9.08594 55.8633 9.08594C56.457 9.08594 57 9.17188 57.4922 9.34375C57.9844 9.51562 58.4062 9.78906 58.7578 10.1641C59.1172 10.5391 59.3906 11.0352 59.5781 11.6523C59.7734 12.2695 59.8711 13.0234 59.8711 13.9141V22H56.4727V13.9023C56.4727 13.3398 56.3945 12.9023 56.2383 12.5898C56.082 12.2773 55.8516 12.0586 55.5469 11.9336C55.25 11.8008 54.8828 11.7344 54.4453 11.7344C53.9922 11.7344 53.5977 11.8242 53.2617 12.0039C52.9336 12.1836 52.6602 12.4336 52.4414 12.7539C52.2305 13.0664 52.0703 13.4336 51.9609 13.8555C51.8516 14.2773 51.7969 14.7305 51.7969 15.2148Z" fill="black"/>
<path d="M64.6484 12.0273V22H64.0156V9.32031H64.6484V12.0273ZM64.543 14.5703L64.2031 13.9023C64.2812 13.2773 64.4531 12.6797 64.7188 12.1094C64.9844 11.5312 65.332 11.0156 65.7617 10.5625C66.1914 10.1094 66.6914 9.75 67.2617 9.48438C67.832 9.21875 68.4609 9.08594 69.1484 9.08594C69.7891 9.08594 70.3594 9.17578 70.8594 9.35547C71.3594 9.52734 71.7812 9.80469 72.125 10.1875C72.4688 10.5625 72.7305 11.0469 72.9102 11.6406C73.0898 12.2344 73.1797 12.9531 73.1797 13.7969V22H72.5469V13.7969C72.5469 12.7188 72.3984 11.8867 72.1016 11.3008C71.8125 10.707 71.4102 10.293 70.8945 10.0586C70.3789 9.82422 69.7852 9.70703 69.1133 9.70703C68.3164 9.70703 67.6328 9.88672 67.0625 10.2461C66.5 10.5977 66.0352 11.0391 65.668 11.5703C65.3086 12.1016 65.0352 12.6406 64.8477 13.1875C64.668 13.7344 64.5664 14.1953 64.543 14.5703ZM81.7227 22.2344C80.9492 22.2344 80.2266 22.082 79.5547 21.7773C78.8828 21.4648 78.293 21.0273 77.7852 20.4648C77.2773 19.9023 76.8789 19.2383 76.5898 18.4727C76.3086 17.6992 76.168 16.8516 76.168 15.9297V15.4141C76.168 14.4844 76.3047 13.6367 76.5781 12.8711C76.8594 12.0977 77.2422 11.4297 77.7266 10.8672C78.2188 10.2969 78.7852 9.85938 79.4258 9.55469C80.0664 9.24219 80.7539 9.08594 81.4883 9.08594C82.1914 9.08594 82.8359 9.21875 83.4219 9.48438C84.0078 9.74219 84.5156 10.1094 84.9453 10.5859C85.3828 11.0625 85.7188 11.6328 85.9531 12.2969C86.1875 12.9609 86.3047 13.6953 86.3047 14.5V15.2383H76.5781V14.6055H85.6719V14.4531C85.6719 13.6016 85.5 12.8203 85.1562 12.1094C84.8125 11.3906 84.3281 10.8125 83.7031 10.375C83.0781 9.9375 82.3398 9.71875 81.4883 9.71875C80.7852 9.71875 80.1445 9.86719 79.5664 10.1641C78.9961 10.4609 78.5039 10.8711 78.0898 11.3945C77.6758 11.9102 77.3555 12.5117 77.1289 13.1992C76.9102 13.8867 76.8008 14.625 76.8008 15.4141V15.9297C76.8008 16.7188 76.9258 17.457 77.1758 18.1445C77.4258 18.832 77.7734 19.4375 78.2188 19.9609C78.6641 20.4766 79.1836 20.8828 79.7773 21.1797C80.3789 21.4688 81.0273 21.6133 81.7227 21.6133C82.4492 21.6133 83.125 21.4922 83.75 21.25C84.3828 21.0078 84.9609 20.5469 85.4844 19.8672L85.9297 20.1836C85.6484 20.582 85.3086 20.9375 84.9102 21.25C84.5195 21.5547 84.0586 21.7969 83.5273 21.9766C83.0039 22.1484 82.4023 22.2344 81.7227 22.2344ZM90.043 9.32031V22H89.4102V9.32031H90.043ZM89.082 5.35938C89.082 5.17969 89.1445 5.02734 89.2695 4.90234C89.3945 4.76953 89.5469 4.70312 89.7266 4.70312C89.9062 4.70312 90.0586 4.76953 90.1836 4.90234C90.3164 5.02734 90.3828 5.17969 90.3828 5.35938C90.3828 5.53906 90.3164 5.69141 90.1836 5.81641C90.0586 5.94141 89.9062 6.00391 89.7266 6.00391C89.5469 6.00391 89.3945 5.94141 89.2695 5.81641C89.1445 5.69141 89.082 5.53906 89.082 5.35938ZM98.7617 22.2344C97.9883 22.2344 97.2656 22.082 96.5938 21.7773C95.9219 21.4648 95.332 21.0273 94.8242 20.4648C94.3164 19.9023 93.918 19.2383 93.6289 18.4727C93.3477 17.6992 93.207 16.8516 93.207 15.9297V15.4141C93.207 14.4844 93.3438 13.6367 93.6172 12.8711C93.8984 12.0977 94.2812 11.4297 94.7656 10.8672C95.2578 10.2969 95.8242 9.85938 96.4648 9.55469C97.1055 9.24219 97.793 9.08594 98.5273 9.08594C99.2305 9.08594 99.875 9.21875 100.461 9.48438C101.047 9.74219 101.555 10.1094 101.984 10.5859C102.422 11.0625 102.758 11.6328 102.992 12.2969C103.227 12.9609 103.344 13.6953 103.344 14.5V15.2383H93.6172V14.6055H102.711V14.4531C102.711 13.6016 102.539 12.8203 102.195 12.1094C101.852 11.3906 101.367 10.8125 100.742 10.375C100.117 9.9375 99.3789 9.71875 98.5273 9.71875C97.8242 9.71875 97.1836 9.86719 96.6055 10.1641C96.0352 10.4609 95.543 10.8711 95.1289 11.3945C94.7148 11.9102 94.3945 12.5117 94.168 13.1992C93.9492 13.8867 93.8398 14.625 93.8398 15.4141V15.9297C93.8398 16.7188 93.9648 17.457 94.2148 18.1445C94.4648 18.832 94.8125 19.4375 95.2578 19.9609C95.7031 20.4766 96.2227 20.8828 96.8164 21.1797C97.418 21.4688 98.0664 21.6133 98.7617 21.6133C99.4883 21.6133 100.164 21.4922 100.789 21.25C101.422 21.0078 102 20.5469 102.523 19.8672L102.969 20.1836C102.688 20.582 102.348 20.9375 101.949 21.25C101.559 21.5547 101.098 21.7969 100.566 21.9766C100.043 22.1484 99.4414 22.2344 98.7617 22.2344ZM107.082 4V22H106.449V4H107.082Z" fill="black"/>
</svg>
