<svg width="137" height="28" viewBox="0 0 137 28" fill="none" xmlns="http://www.w3.org/2000/svg">
<path d="M6.85547 3.28516L7.51172 5.11328C6.80078 5.37109 6.31641 5.82812 6.05859 6.48438C5.80078 7.13281 5.67188 7.88281 5.67188 8.73438V11.125C5.67188 11.9141 5.49609 12.6289 5.14453 13.2695C4.80078 13.9102 4.25391 14.4219 3.50391 14.8047C2.75391 15.1797 1.77344 15.3672 0.5625 15.3672V13.5859C1.30469 13.5859 1.83594 13.3633 2.15625 12.918C2.48438 12.4727 2.64844 11.875 2.64844 11.125V8.73438C2.64844 7.91406 2.77344 7.14844 3.02344 6.4375C3.28125 5.71875 3.71484 5.08984 4.32422 4.55078C4.94141 4.00391 5.78516 3.58203 6.85547 3.28516ZM7.51172 24.4023L6.85547 26.2422C5.78516 25.9375 4.94141 25.5117 4.32422 24.9648C3.71484 24.4258 3.28125 23.7969 3.02344 23.0781C2.77344 22.3672 2.64844 21.6016 2.64844 20.7812V18.3906C2.64844 17.8906 2.57422 17.457 2.42578 17.0898C2.28516 16.7227 2.0625 16.4414 1.75781 16.2461C1.45312 16.043 1.05469 15.9414 0.5625 15.9414V14.1484C1.77344 14.1484 2.75391 14.3398 3.50391 14.7227C4.25391 15.0977 4.80078 15.6055 5.14453 16.2461C5.49609 16.8867 5.67188 17.6016 5.67188 18.3906V20.7812C5.67188 21.3516 5.72656 21.8789 5.83594 22.3633C5.95312 22.8477 6.14062 23.2656 6.39844 23.6172C6.66406 23.9688 7.03516 24.2305 7.51172 24.4023ZM22.0547 19.1406V13.4922C22.0547 13.0859 21.9883 12.7383 21.8555 12.4492C21.7227 12.1523 21.5156 11.9219 21.2344 11.7578C20.9609 11.5938 20.6055 11.5117 20.168 11.5117C19.793 11.5117 19.4688 11.5781 19.1953 11.7109C18.9219 11.8359 18.7109 12.0195 18.5625 12.2617C18.4141 12.4961 18.3398 12.7734 18.3398 13.0938H14.9648C14.9648 12.5547 15.0898 12.043 15.3398 11.5586C15.5898 11.0742 15.9531 10.6484 16.4297 10.2812C16.9062 9.90625 17.4727 9.61328 18.1289 9.40234C18.793 9.19141 19.5352 9.08594 20.3555 9.08594C21.3398 9.08594 22.2148 9.25 22.9805 9.57812C23.7461 9.90625 24.3477 10.3984 24.7852 11.0547C25.2305 11.7109 25.4531 12.5312 25.4531 13.5156V18.9414C25.4531 19.6367 25.4961 20.207 25.582 20.6523C25.668 21.0898 25.793 21.4727 25.957 21.8008V22H22.5469C22.3828 21.6562 22.2578 21.2266 22.1719 20.7109C22.0938 20.1875 22.0547 19.6641 22.0547 19.1406ZM22.5 14.2773L22.5234 16.1875H20.6367C20.1914 16.1875 19.8047 16.2383 19.4766 16.3398C19.1484 16.4414 18.8789 16.5859 18.668 16.7734C18.457 16.9531 18.3008 17.1641 18.1992 17.4062C18.1055 17.6484 18.0586 17.9141 18.0586 18.2031C18.0586 18.4922 18.125 18.7539 18.2578 18.9883C18.3906 19.2148 18.582 19.3945 18.832 19.5273C19.082 19.6523 19.375 19.7148 19.7109 19.7148C20.2188 19.7148 20.6602 19.6133 21.0352 19.4102C21.4102 19.207 21.6992 18.957 21.9023 18.6602C22.1133 18.3633 22.2227 18.082 22.2305 17.8164L23.1211 19.2461C22.9961 19.5664 22.8242 19.8984 22.6055 20.2422C22.3945 20.5859 22.125 20.9102 21.7969 21.2148C21.4688 21.5117 21.0742 21.7578 20.6133 21.9531C20.1523 22.1406 19.6055 22.2344 18.9727 22.2344C18.168 22.2344 17.4375 22.0742 16.7812 21.7539C16.1328 21.4258 15.6172 20.9766 15.2344 20.4062C14.8594 19.8281 14.6719 19.1719 14.6719 18.4375C14.6719 17.7734 14.7969 17.1836 15.0469 16.668C15.2969 16.1523 15.6641 15.7188 16.1484 15.3672C16.6406 15.0078 17.2539 14.7383 17.9883 14.5586C18.7227 14.3711 19.5742 14.2773 20.543 14.2773H22.5ZM34.8984 19.1406V13.4922C34.8984 13.0859 34.832 12.7383 34.6992 12.4492C34.5664 12.1523 34.3594 11.9219 34.0781 11.7578C33.8047 11.5938 33.4492 11.5117 33.0117 11.5117C32.6367 11.5117 32.3125 11.5781 32.0391 11.7109C31.7656 11.8359 31.5547 12.0195 31.4062 12.2617C31.2578 12.4961 31.1836 12.7734 31.1836 13.0938H27.8086C27.8086 12.5547 27.9336 12.043 28.1836 11.5586C28.4336 11.0742 28.7969 10.6484 29.2734 10.2812C29.75 9.90625 30.3164 9.61328 30.9727 9.40234C31.6367 9.19141 32.3789 9.08594 33.1992 9.08594C34.1836 9.08594 35.0586 9.25 35.8242 9.57812C36.5898 9.90625 37.1914 10.3984 37.6289 11.0547C38.0742 11.7109 38.2969 12.5312 38.2969 13.5156V18.9414C38.2969 19.6367 38.3398 20.207 38.4258 20.6523C38.5117 21.0898 38.6367 21.4727 38.8008 21.8008V22H35.3906C35.2266 21.6562 35.1016 21.2266 35.0156 20.7109C34.9375 20.1875 34.8984 19.6641 34.8984 19.1406ZM35.3438 14.2773L35.3672 16.1875H33.4805C33.0352 16.1875 32.6484 16.2383 32.3203 16.3398C31.9922 16.4414 31.7227 16.5859 31.5117 16.7734C31.3008 16.9531 31.1445 17.1641 31.043 17.4062C30.9492 17.6484 30.9023 17.9141 30.9023 18.2031C30.9023 18.4922 30.9688 18.7539 31.1016 18.9883C31.2344 19.2148 31.4258 19.3945 31.6758 19.5273C31.9258 19.6523 32.2188 19.7148 32.5547 19.7148C33.0625 19.7148 33.5039 19.6133 33.8789 19.4102C34.2539 19.207 34.543 18.957 34.7461 18.6602C34.957 18.3633 35.0664 18.082 35.0742 17.8164L35.9648 19.2461C35.8398 19.5664 35.668 19.8984 35.4492 20.2422C35.2383 20.5859 34.9688 20.9102 34.6406 21.2148C34.3125 21.5117 33.918 21.7578 33.457 21.9531C32.9961 22.1406 32.4492 22.2344 31.8164 22.2344C31.0117 22.2344 30.2812 22.0742 29.625 21.7539C28.9766 21.4258 28.4609 20.9766 28.0781 20.4062C27.7031 19.8281 27.5156 19.1719 27.5156 18.4375C27.5156 17.7734 27.6406 17.1836 27.8906 16.668C28.1406 16.1523 28.5078 15.7188 28.9922 15.3672C29.4844 15.0078 30.0977 14.7383 30.832 14.5586C31.5664 14.3711 32.418 14.2773 33.3867 14.2773H35.3438ZM44.2734 12.0859V22H40.8984V9.32031H44.0742L44.2734 12.0859ZM48.0938 9.23828L48.0352 12.3672C47.8711 12.3438 47.6719 12.3242 47.4375 12.3086C47.2109 12.2852 47.0039 12.2734 46.8164 12.2734C46.3398 12.2734 45.9258 12.3359 45.5742 12.4609C45.2305 12.5781 44.9414 12.7539 44.707 12.9883C44.4805 13.2227 44.3086 13.5078 44.1914 13.8438C44.082 14.1797 44.0195 14.5625 44.0039 14.9922L43.3242 14.7812C43.3242 13.9609 43.4062 13.207 43.5703 12.5195C43.7344 11.8242 43.9727 11.2188 44.2852 10.7031C44.6055 10.1875 44.9961 9.78906 45.457 9.50781C45.918 9.22656 46.4453 9.08594 47.0391 9.08594C47.2266 9.08594 47.418 9.10156 47.6133 9.13281C47.8086 9.15625 47.9688 9.19141 48.0938 9.23828ZM48.7969 15.7891V15.543C48.7969 14.6133 48.9297 13.7578 49.1953 12.9766C49.4609 12.1875 49.8477 11.5039 50.3555 10.9258C50.8633 10.3477 51.4883 9.89844 52.2305 9.57812C52.9727 9.25 53.8242 9.08594 54.7852 9.08594C55.7461 9.08594 56.6016 9.25 57.3516 9.57812C58.1016 9.89844 58.7305 10.3477 59.2383 10.9258C59.7539 11.5039 60.1445 12.1875 60.4102 12.9766C60.6758 13.7578 60.8086 14.6133 60.8086 15.543V15.7891C60.8086 16.7109 60.6758 17.5664 60.4102 18.3555C60.1445 19.1367 59.7539 19.8203 59.2383 20.4062C58.7305 20.9844 58.1055 21.4336 57.3633 21.7539C56.6211 22.0742 55.7695 22.2344 54.8086 22.2344C53.8477 22.2344 52.9922 22.0742 52.2422 21.7539C51.5 21.4336 50.8711 20.9844 50.3555 20.4062C49.8477 19.8203 49.4609 19.1367 49.1953 18.3555C48.9297 17.5664 48.7969 16.7109 48.7969 15.7891ZM52.1719 15.543V15.7891C52.1719 16.3203 52.2188 16.8164 52.3125 17.2773C52.4062 17.7383 52.5547 18.1445 52.7578 18.4961C52.9688 18.8398 53.2422 19.1094 53.5781 19.3047C53.9141 19.5 54.3242 19.5977 54.8086 19.5977C55.2773 19.5977 55.6797 19.5 56.0156 19.3047C56.3516 19.1094 56.6211 18.8398 56.8242 18.4961C57.0273 18.1445 57.1758 17.7383 57.2695 17.2773C57.3711 16.8164 57.4219 16.3203 57.4219 15.7891V15.543C57.4219 15.0273 57.3711 14.543 57.2695 14.0898C57.1758 13.6289 57.0234 13.2227 56.8125 12.8711C56.6094 12.5117 56.3398 12.2305 56.0039 12.0273C55.668 11.8242 55.2617 11.7227 54.7852 11.7227C54.3086 11.7227 53.9023 11.8242 53.5664 12.0273C53.2383 12.2305 52.9688 12.5117 52.7578 12.8711C52.5547 13.2227 52.4062 13.6289 52.3125 14.0898C52.2188 14.543 52.1719 15.0273 52.1719 15.543ZM66.1875 12.0273V22H62.8125V9.32031H65.9766L66.1875 12.0273ZM65.6953 15.2148H64.7812C64.7812 14.2773 64.9023 13.4336 65.1445 12.6836C65.3867 11.9258 65.7266 11.2812 66.1641 10.75C66.6016 10.2109 67.1211 9.80078 67.7227 9.51953C68.332 9.23047 69.0117 9.08594 69.7617 9.08594C70.3555 9.08594 70.8984 9.17188 71.3906 9.34375C71.8828 9.51562 72.3047 9.78906 72.6562 10.1641C73.0156 10.5391 73.2891 11.0352 73.4766 11.6523C73.6719 12.2695 73.7695 13.0234 73.7695 13.9141V22H70.3711V13.9023C70.3711 13.3398 70.293 12.9023 70.1367 12.5898C69.9805 12.2773 69.75 12.0586 69.4453 11.9336C69.1484 11.8008 68.7812 11.7344 68.3438 11.7344C67.8906 11.7344 67.4961 11.8242 67.1602 12.0039C66.832 12.1836 66.5586 12.4336 66.3398 12.7539C66.1289 13.0664 65.9688 13.4336 65.8594 13.8555C65.75 14.2773 65.6953 14.7305 65.6953 15.2148Z" fill="black"/>
<path d="M78.6484 12.0273V22H78.0156V9.32031H78.6484V12.0273ZM78.543 14.5703L78.2031 13.9023C78.2812 13.2773 78.4531 12.6797 78.7188 12.1094C78.9844 11.5312 79.332 11.0156 79.7617 10.5625C80.1914 10.1094 80.6914 9.75 81.2617 9.48438C81.832 9.21875 82.4609 9.08594 83.1484 9.08594C83.7891 9.08594 84.3594 9.17578 84.8594 9.35547C85.3594 9.52734 85.7812 9.80469 86.125 10.1875C86.4688 10.5625 86.7305 11.0469 86.9102 11.6406C87.0898 12.2344 87.1797 12.9531 87.1797 13.7969V22H86.5469V13.7969C86.5469 12.7188 86.3984 11.8867 86.1016 11.3008C85.8125 10.707 85.4102 10.293 84.8945 10.0586C84.3789 9.82422 83.7852 9.70703 83.1133 9.70703C82.3164 9.70703 81.6328 9.88672 81.0625 10.2461C80.5 10.5977 80.0352 11.0391 79.668 11.5703C79.3086 12.1016 79.0352 12.6406 78.8477 13.1875C78.668 13.7344 78.5664 14.1953 78.543 14.5703ZM95.7227 22.2344C94.9492 22.2344 94.2266 22.082 93.5547 21.7773C92.8828 21.4648 92.293 21.0273 91.7852 20.4648C91.2773 19.9023 90.8789 19.2383 90.5898 18.4727C90.3086 17.6992 90.168 16.8516 90.168 15.9297V15.4141C90.168 14.4844 90.3047 13.6367 90.5781 12.8711C90.8594 12.0977 91.2422 11.4297 91.7266 10.8672C92.2188 10.2969 92.7852 9.85938 93.4258 9.55469C94.0664 9.24219 94.7539 9.08594 95.4883 9.08594C96.1914 9.08594 96.8359 9.21875 97.4219 9.48438C98.0078 9.74219 98.5156 10.1094 98.9453 10.5859C99.3828 11.0625 99.7188 11.6328 99.9531 12.2969C100.188 12.9609 100.305 13.6953 100.305 14.5V15.2383H90.5781V14.6055H99.6719V14.4531C99.6719 13.6016 99.5 12.8203 99.1562 12.1094C98.8125 11.3906 98.3281 10.8125 97.7031 10.375C97.0781 9.9375 96.3398 9.71875 95.4883 9.71875C94.7852 9.71875 94.1445 9.86719 93.5664 10.1641C92.9961 10.4609 92.5039 10.8711 92.0898 11.3945C91.6758 11.9102 91.3555 12.5117 91.1289 13.1992C90.9102 13.8867 90.8008 14.625 90.8008 15.4141V15.9297C90.8008 16.7188 90.9258 17.457 91.1758 18.1445C91.4258 18.832 91.7734 19.4375 92.2188 19.9609C92.6641 20.4766 93.1836 20.8828 93.7773 21.1797C94.3789 21.4688 95.0273 21.6133 95.7227 21.6133C96.4492 21.6133 97.125 21.4922 97.75 21.25C98.3828 21.0078 98.9609 20.5469 99.4844 19.8672L99.9297 20.1836C99.6484 20.582 99.3086 20.9375 98.9102 21.25C98.5195 21.5547 98.0586 21.7969 97.5273 21.9766C97.0039 22.1484 96.4023 22.2344 95.7227 22.2344ZM104.043 9.32031V22H103.41V9.32031H104.043ZM103.082 5.35938C103.082 5.17969 103.145 5.02734 103.27 4.90234C103.395 4.76953 103.547 4.70312 103.727 4.70312C103.906 4.70312 104.059 4.76953 104.184 4.90234C104.316 5.02734 104.383 5.17969 104.383 5.35938C104.383 5.53906 104.316 5.69141 104.184 5.81641C104.059 5.94141 103.906 6.00391 103.727 6.00391C103.547 6.00391 103.395 5.94141 103.27 5.81641C103.145 5.69141 103.082 5.53906 103.082 5.35938ZM112.762 22.2344C111.988 22.2344 111.266 22.082 110.594 21.7773C109.922 21.4648 109.332 21.0273 108.824 20.4648C108.316 19.9023 107.918 19.2383 107.629 18.4727C107.348 17.6992 107.207 16.8516 107.207 15.9297V15.4141C107.207 14.4844 107.344 13.6367 107.617 12.8711C107.898 12.0977 108.281 11.4297 108.766 10.8672C109.258 10.2969 109.824 9.85938 110.465 9.55469C111.105 9.24219 111.793 9.08594 112.527 9.08594C113.23 9.08594 113.875 9.21875 114.461 9.48438C115.047 9.74219 115.555 10.1094 115.984 10.5859C116.422 11.0625 116.758 11.6328 116.992 12.2969C117.227 12.9609 117.344 13.6953 117.344 14.5V15.2383H107.617V14.6055H116.711V14.4531C116.711 13.6016 116.539 12.8203 116.195 12.1094C115.852 11.3906 115.367 10.8125 114.742 10.375C114.117 9.9375 113.379 9.71875 112.527 9.71875C111.824 9.71875 111.184 9.86719 110.605 10.1641C110.035 10.4609 109.543 10.8711 109.129 11.3945C108.715 11.9102 108.395 12.5117 108.168 13.1992C107.949 13.8867 107.84 14.625 107.84 15.4141V15.9297C107.84 16.7188 107.965 17.457 108.215 18.1445C108.465 18.832 108.812 19.4375 109.258 19.9609C109.703 20.4766 110.223 20.8828 110.816 21.1797C111.418 21.4688 112.066 21.6133 112.762 21.6133C113.488 21.6133 114.164 21.4922 114.789 21.25C115.422 21.0078 116 20.5469 116.523 19.8672L116.969 20.1836C116.688 20.582 116.348 20.9375 115.949 21.25C115.559 21.5547 115.098 21.7969 114.566 21.9766C114.043 22.1484 113.441 22.2344 112.762 22.2344ZM121.082 4V22H120.449V4H121.082ZM129.367 5.11328L130.023 3.28516C131.102 3.58203 131.945 4.00391 132.555 4.55078C133.164 5.08984 133.594 5.71875 133.844 6.4375C134.102 7.14844 134.23 7.91406 134.23 8.73438V11.125C134.23 11.625 134.301 12.0586 134.441 12.4258C134.582 12.793 134.805 13.0781 135.109 13.2812C135.422 13.4844 135.824 13.5859 136.316 13.5859V15.3203C135.105 15.3203 134.125 15.1367 133.375 14.7695C132.625 14.4023 132.074 13.9023 131.723 13.2695C131.371 12.6289 131.195 11.9141 131.195 11.125V8.73438C131.195 8.16406 131.141 7.63672 131.031 7.15234C130.93 6.66797 130.746 6.25 130.48 5.89844C130.215 5.54688 129.844 5.28516 129.367 5.11328ZM130.023 26.2422L129.367 24.4023C129.844 24.2305 130.215 23.9688 130.48 23.6172C130.746 23.2656 130.93 22.8477 131.031 22.3633C131.141 21.8789 131.195 21.3516 131.195 20.7812V18.3906C131.195 17.6016 131.371 16.8906 131.723 16.2578C132.074 15.625 132.625 15.125 133.375 14.7578C134.125 14.3828 135.105 14.1953 136.316 14.1953V15.9414C135.582 15.9414 135.051 16.1641 134.723 16.6094C134.395 17.0547 134.23 17.6484 134.23 18.3906V20.7812C134.23 21.6016 134.102 22.3672 133.844 23.0781C133.594 23.7969 133.164 24.4258 132.555 24.9648C131.945 25.5117 131.102 25.9375 130.023 26.2422Z" fill="black"/>
</svg>
